<svg xmlns="http://www.w3.org/2000/svg" version="1.1" xmlns:xlink="http://www.w3.org/1999/xlink" viewBox="0 0 200 200"><rect width="200" height="200" fill="url('#gradient')"></rect><defs><linearGradient id="gradient" gradientTransform="rotate(45 0.5 0.5)"><stop offset="0%" stop-color="#ffffff"></stop><stop offset="100%" stop-color="#000000"></stop></linearGradient></defs><g><g fill="#1c1c1b" transform="matrix(2.7355298308103295,0,0,2.7355298308103295,8.282291507996945,117.1648614336525)" stroke="#92d1a1" stroke-width="0.2"><path d="M8.41-3.78L8.41-3.78Q8.41-4.53 7.88-4.95Q7.34-5.37 6.01-5.82Q4.67-6.27 3.82-6.69L3.82-6.69Q1.05-8.05 1.05-10.42L1.05-10.42Q1.05-11.60 1.74-12.50Q2.43-13.41 3.69-13.91Q4.95-14.41 6.52-14.41L6.52-14.41Q8.06-14.41 9.27-13.87Q10.49-13.32 11.16-12.31Q11.84-11.30 11.84-10L11.84-10L8.42-10Q8.42-10.87 7.89-11.35Q7.35-11.83 6.45-11.83L6.45-11.83Q5.53-11.83 5.00-11.42Q4.46-11.02 4.46-10.39L4.46-10.39Q4.46-9.84 5.05-9.40Q5.63-8.96 7.11-8.48Q8.58-8.01 9.53-7.46L9.53-7.46Q11.84-6.13 11.84-3.80L11.84-3.80Q11.84-1.93 10.43-0.87Q9.02 0.20 6.57 0.20L6.57 0.20Q4.84 0.20 3.44-0.42Q2.04-1.04 1.33-2.12Q0.63-3.20 0.63-4.61L0.63-4.61L4.06-4.61Q4.06-3.47 4.65-2.92Q5.24-2.38 6.57-2.38L6.57-2.38Q7.42-2.38 7.92-2.75Q8.41-3.12 8.41-3.78ZM21.46 0L18.43-5.29L17.02-3.75L17.02 0L13.59 0L13.59-14.22L17.02-14.22L17.02-7.95L18.21-9.76L21.28-14.22L25.52-14.22L20.71-7.93L25.52 0L21.46 0ZM34.13 0L34.13 2.45L25.31 2.45L25.31 0L34.13 0ZM34.65-5.36L34.65-5.36Q34.65-7.87 35.73-9.32Q36.82-10.76 38.76-10.76L38.76-10.76Q40.18-10.76 41.14-9.65L41.14-9.65L41.14-15L44.44-15L44.44 0L41.48 0L41.32-1.13Q40.30 0.20 38.74 0.20L38.74 0.20Q36.86 0.20 35.75-1.25Q34.65-2.70 34.65-5.36ZM37.95-5.76L37.94-5.16Q37.94-2.34 39.58-2.34L39.58-2.34Q40.67-2.34 41.14-3.26L41.14-3.26L41.14-7.29Q40.69-8.22 39.60-8.22L39.60-8.22Q38.08-8.22 37.95-5.76L37.95-5.76ZM51.43 0.20L51.43 0.20Q48.99 0.20 47.49-1.25Q45.99-2.71 45.99-5.03L45.99-5.03L45.99-5.30Q45.99-6.92 46.59-8.16Q47.19-9.40 48.34-10.08Q49.49-10.76 51.07-10.76L51.07-10.76Q53.30-10.76 54.59-9.38Q55.88-8.00 55.88-5.53L55.88-5.53L55.88-4.25L49.34-4.25Q49.51-3.36 50.11-2.85Q50.70-2.34 51.65-2.34L51.65-2.34Q53.21-2.34 54.09-3.44L54.09-3.44L55.60-1.66Q54.98-0.81 53.85-0.31Q52.72 0.20 51.43 0.20ZM51.05-8.22L51.05-8.22Q49.61-8.22 49.34-6.31L49.34-6.31L52.66-6.31L52.66-6.56Q52.68-7.35 52.26-7.79Q51.84-8.22 51.05-8.22ZM59.65-10.57L61.29-3.92L62.96-10.57L66.43-10.57L62.98 0L59.62 0L56.17-10.57L59.65-10.57Z"></path></g></g></svg>